<svg xmlns="http://www.w3.org/2000/svg" enable-background="new 0 0 36 36" viewBox="0 0 36 36"><path fill="#EFEFEF" d="M8.377,4.167c6.917,0,11.667-3.583,15-3.583S33.71,2.5,33.71,17.833s-9.417,17.583-13.083,17.583C3.46,35.417-3.873,4.167,8.377,4.167z"/><rect width="2" height="1" x="8.096" y="4.306" fill="#A4AFC1" transform="rotate(-45.001 9.096 4.806)"/><rect width="2" height="1" x="4.03" y="8.371" fill="#A4AFC1" transform="rotate(-45.001 5.03 8.871)"/><rect width="1" height="2" x="4.53" y="3.629" fill="#A4AFC1" transform="rotate(-45.001 5.03 4.629)"/><path fill="#A4AFC1" d="M29.788,29.393c-0.827,0-1.5-0.673-1.5-1.5s0.673-1.5,1.5-1.5s1.5,0.673,1.5,1.5S30.615,29.393,29.788,29.393z M29.788,27.393c-0.275,0-0.5,0.225-0.5,0.5s0.225,0.5,0.5,0.5s0.5-0.225,0.5-0.5S30.063,27.393,29.788,27.393z"/><circle cx="18" cy="18" r="11.25" fill="#2FDF84"/><path fill="#00B871" d="M9,18c0-5.833,4.44-10.629,10.125-11.193C18.755,6.77,18.38,6.75,18,6.75C11.787,6.75,6.75,11.787,6.75,18S11.787,29.25,18,29.25c0.38,0,0.755-0.02,1.125-0.057C13.44,28.629,9,23.833,9,18z"/><path d="M13.725,26.001c-0.35,0-0.67-0.084-0.935-0.263c-0.362-0.244-1.1-1.006-0.13-2.806c0.439-0.815,1.125-1.511,1.963-2.02c-0.283-0.199-0.616-0.406-1.002-0.621c-1.457-0.812-2.207-2.071-2.113-3.545c0.148-2.331,2.401-4.761,5.607-6.048c2.881-1.155,5.787-0.836,6.916,0.757c0.405,0.573,1.131,2.156-0.899,4.47c-0.913,1.04-2.258,1.651-3.786,1.722c-1.449,0.075-2.893-0.374-3.684-1.123l1.031-1.09c0.404,0.383,1.378,0.773,2.583,0.715c0.647-0.029,1.862-0.228,2.729-1.214c0.933-1.062,1.225-2.016,0.802-2.613c-0.621-0.877-2.712-1.201-5.133-0.23c-2.639,1.059-4.559,3.013-4.669,4.751c-0.057,0.889,0.396,1.608,1.347,2.139c0.614,0.343,1.282,0.756,1.829,1.256c0.163-0.046,0.328-0.086,0.496-0.119c1.371-0.271,2.622-0.054,3.428,0.604c0.556,0.453,0.873,1.028,0.916,1.664c0.08,1.149-0.746,2.073-0.84,2.175l-1.103-1.018c0.135-0.149,0.479-0.63,0.446-1.059c-0.011-0.138-0.06-0.35-0.367-0.601c-0.415-0.338-1.174-0.46-2.008-0.327c0.06,0.149,0.104,0.304,0.135,0.464c0.152,0.814-0.123,1.651-0.816,2.487C15.686,25.451,14.614,26.001,13.725,26.001z M15.718,22.025c-0.682,0.345-1.337,0.876-1.737,1.618c-0.357,0.665-0.299,0.915-0.299,0.917c0.096,0.006,0.971-0.214,1.632-1.009c0.597-0.72,0.521-1.122,0.496-1.255C15.793,22.208,15.763,22.117,15.718,22.025z"/><path d="M18,30c-6.617,0-12-5.383-12-12S11.383,6,18,6s12,5.383,12,12S24.617,30,18,30z M18,7.5C12.21,7.5,7.5,12.21,7.5,18S12.21,28.5,18,28.5S28.5,23.79,28.5,18S23.79,7.5,18,7.5z"/></svg>